<?xml version="1.0" encoding="UTF-8" standalone="no"?>
<!-- Created with Inkscape (http://www.inkscape.org/) -->

<svg
   xmlns:dc="http://purl.org/dc/elements/1.1/"
   xmlns:cc="http://creativecommons.org/ns#"
   xmlns:rdf="http://www.w3.org/1999/02/22-rdf-syntax-ns#"
   xmlns:svg="http://www.w3.org/2000/svg"
   xmlns="http://www.w3.org/2000/svg"
   xmlns:sodipodi="http://sodipodi.sourceforge.net/DTD/sodipodi-0.dtd"
   xmlns:inkscape="http://www.inkscape.org/namespaces/inkscape"
   version="1.2"
   width="362.01999"
   height="114.44"
   id="svg2"
   inkscape:version="0.48.0 r9654"
   sodipodi:docname="u_nieskładovaje_unicode.svg">
  <sodipodi:namedview
     pagecolor="#ffffff"
     bordercolor="#666666"
     borderopacity="1"
     objecttolerance="10"
     gridtolerance="10"
     guidetolerance="10"
     inkscape:pageopacity="0"
     inkscape:pageshadow="2"
     inkscape:window-width="1366"
     inkscape:window-height="706"
     id="namedview2999"
     showgrid="false"
     inkscape:zoom="1.3258936"
     inkscape:cx="181.00999"
     inkscape:cy="57.220001"
     inkscape:window-x="-8"
     inkscape:window-y="-8"
     inkscape:window-maximized="1"
     inkscape:current-layer="layer1" />
  <defs
     id="defs4" />
  <metadata
     id="metadata7">
    <rdf:RDF>
      <cc:Work
         rdf:about="">
        <dc:format>image/svg+xml</dc:format>
        <dc:type
           rdf:resource="http://purl.org/dc/dcmitype/StillImage" />
        <dc:title />
      </cc:Work>
    </rdf:RDF>
  </metadata>
  <g
     transform="translate(-149.21596,-236.34015)"
     id="layer1">
    <g
       style="font-size:106.388237px;font-style:normal;font-weight:normal;line-height:125%;letter-spacing:0px;word-spacing:0px;fill:#000000;fill-opacity:1;stroke:none;font-family:Sans"
       id="text2993">
      <path
         d="m 162.09825,341.63744 -1.03895,-8.77911 c 2.04326,0.55409 3.82678,0.83115 5.35058,0.83116 2.07788,-10e-6 3.7402,-0.34633 4.98695,-1.03895 1.24672,-0.69264 2.26835,-1.66232 3.06489,-2.90905 0.58872,-0.93506 1.54109,-3.25538 2.85711,-6.96095 0.17314,-0.51948 0.45019,-1.28137 0.83116,-2.28568 l -20.9348,-55.27202 10.0778,0 11.48037,31.94764 c 1.48913,4.05192 2.82245,8.3116 3.99995,12.77906 1.07355,-4.29431 2.35491,-8.48472 3.8441,-12.57127 l 11.79206,-32.15543 9.35053,0 -20.98675,56.10317 c -2.25108,6.06052 -3.99997,10.23363 -5.24668,12.51932 -1.66234,3.0822 -3.56708,5.34191 -5.71421,6.77914 -2.14718,1.43718 -4.70991,2.15579 -7.68822,2.15581 -1.80085,-2e-5 -3.80948,-0.38097 -6.02589,-1.14284 z"
         id="path3002"
         style="" />
      <path
         d="m 264.85017,308.07943 0,-20.88285 -20.727,0 0,-8.72716 20.727,0 0,-20.727 8.83106,0 0,20.727 20.727,0 0,8.72716 -20.727,0 0,20.88285 z"
         id="path3004"
         style="" />
      <path
         d="m 345.16083,244.33999 c -1.0736,8.96965 -6.18175,13.45444 -15.32448,13.45438 -9.17736,6e-5 -14.30283,-4.48473 -15.37643,-13.45438 l 6.38953,0 c 0.96969,4.67534 3.86143,7.01297 8.67522,7.0129 5.22936,7e-5 8.31157,-2.33756 9.24663,-7.0129 z"
         id="path3006"
         style="" />
      <path
         d="m 415.54952,275.61232 -50.28507,0 0,-8.72716 50.28507,0 z m 0,23.11658 -50.28507,0 0,-8.72716 50.28507,0 z"
         id="path3008"
         style="" />
      <path
         d="m 457.57496,341.63744 -1.03894,-8.77911 c 2.04325,0.55409 3.82678,0.83115 5.35058,0.83116 2.07788,-10e-6 3.74019,-0.34633 4.98694,-1.03895 1.24672,-0.69264 2.26836,-1.66232 3.0649,-2.90905 0.58872,-0.93506 1.54109,-3.25538 2.85711,-6.96095 0.17313,-0.51948 0.45018,-1.28137 0.83115,-2.28568 l -20.93479,-55.27202 10.07779,0 11.48037,31.94764 c 1.48914,4.05192 2.82245,8.3116 3.99995,12.77906 1.07355,-4.29431 2.35492,-8.48472 3.84411,-12.57127 l 11.79205,-32.15543 9.35053,0 -20.98674,56.10317 c -2.25108,6.06052 -3.99998,10.23363 -5.24669,12.51932 -1.66234,3.0822 -3.56707,5.34191 -5.71421,6.77914 -2.14717,1.43718 -4.70991,2.15579 -7.68821,2.15581 -1.80085,-2e-5 -3.80948,-0.38097 -6.0259,-1.14284 z m 29.66196,-97.29745 6.38953,0 c -0.51952,4.32902 -2.10391,7.65365 -4.75319,9.9739 -2.64935,2.32038 -6.17311,3.48054 -10.57129,3.48048 -4.43287,6e-5 -7.97394,-1.15144 -10.62324,-3.4545 -2.64933,-2.30294 -4.23373,-5.63622 -4.75319,-9.99988 l 6.38953,0 c 0.48482,2.35503 1.44585,4.11258 2.88308,5.27266 1.43719,1.16023 3.3679,1.74031 5.79213,1.74024 2.80513,7e-5 4.92632,-0.56269 6.36356,-1.68829 1.43717,-1.12545 2.3982,-2.90032 2.88308,-5.32461 z"
         id="path3010"
         style="" />
    </g>
  </g>
</svg>
